<svg xmlns="http://www.w3.org/2000/svg" viewBox="0 0 512 512">
  <defs>
    <linearGradient id="bg" x1="90" y1="52" x2="430" y2="456" gradientUnits="userSpaceOnUse">
      <stop stop-color="#0e8f83"/>
      <stop offset="1" stop-color="#0b4f49"/>
    </linearGradient>
    <linearGradient id="shine" x1="118" y1="92" x2="344" y2="338" gradientUnits="userSpaceOnUse">
      <stop stop-color="#ffffff" stop-opacity=".34"/>
      <stop offset=".72" stop-color="#ffffff" stop-opacity="0"/>
    </linearGradient>
  </defs>
  <rect width="512" height="512" rx="104" fill="url(#bg)"/>
  <path d="M83 104c94 33 189 30 318-31 18 44 22 101 10 151-87 26-190 14-321-35-8-28-10-56-7-85Z" fill="url(#shine)"/>
  <rect x="88" y="104" width="336" height="294" rx="48" fill="#f5f7ec"/>
  <rect x="116" y="132" width="280" height="58" rx="25" fill="#f4c84a"/>
  <rect x="128" y="224" width="108" height="24" rx="12" fill="#0c6f66"/>
  <rect x="128" y="286" width="152" height="24" rx="12" fill="#0c6f66" opacity=".9"/>
  <rect x="128" y="348" width="126" height="24" rx="12" fill="#0c6f66" opacity=".78"/>
  <circle cx="348" cy="306" r="66" fill="#f4c84a"/>
  <path d="m312 262 36 42 36-42M348 304v54M322 304h52M326 330h44" fill="none" stroke="#0b5e56" stroke-width="18" stroke-linecap="round" stroke-linejoin="round"/>
  <path d="M92 113a48 48 0 0 1 48-48h233c-40 65-115 111-224 137-24 6-44 8-61 8v-97Z" fill="#ffffff" opacity=".16"/>
</svg>
